<svg xmlns="http://www.w3.org/2000/svg" viewBox="0 0 400 400" width="400" height="400">
  <defs>
    <radialGradient id="bgGlow" cx="50%" cy="50%" r="50%">
      <stop offset="0%" stop-color="#a04bff" stop-opacity="0.4"/>
      <stop offset="50%" stop-color="#ff3d8a" stop-opacity="0.18"/>
      <stop offset="100%" stop-color="#0b0510" stop-opacity="0"/>
    </radialGradient>
    <linearGradient id="calBody" x1="0%" y1="0%" x2="100%" y2="100%">
      <stop offset="0%" stop-color="#fdf6fa"/>
      <stop offset="100%" stop-color="#e8d8e8"/>
    </linearGradient>
    <linearGradient id="calHead" x1="0%" y1="0%" x2="100%" y2="0%">
      <stop offset="0%" stop-color="#ff7a3a"/>
      <stop offset="50%" stop-color="#ff3d8a"/>
      <stop offset="100%" stop-color="#a04bff"/>
    </linearGradient>
    <linearGradient id="refreshArc" x1="0%" y1="0%" x2="100%" y2="100%">
      <stop offset="0%" stop-color="#ff7a3a"/>
      <stop offset="100%" stop-color="#a04bff"/>
    </linearGradient>
    <filter id="soft" x="-20%" y="-20%" width="140%" height="140%">
      <feGaussianBlur in="SourceGraphic" stdDeviation="3"/>
    </filter>
  </defs>
  <circle cx="200" cy="200" r="180" fill="url(#bgGlow)"/>
  <circle cx="90" cy="110" r="3" fill="#ff7a3a" opacity="0.6"/>
  <circle cx="320" cy="100" r="3.5" fill="#a04bff" opacity="0.7"/>
  <circle cx="80" cy="295" r="2.5" fill="#ff3d8a" opacity="0.55"/>
  <circle cx="330" cy="290" r="3" fill="#ff7a3a" opacity="0.6"/>
  <circle cx="200" cy="60" r="2" fill="#ffffff" opacity="0.4"/>
  <ellipse cx="200" cy="320" rx="105" ry="14" fill="#000000" opacity="0.5" filter="url(#soft)"/>
  <rect x="124" y="142" width="152" height="172" rx="14" fill="#3a1f48" opacity="0.7"/>
  <rect x="120" y="140" width="160" height="170" rx="14" fill="url(#calBody)" stroke="#c8a4c8" stroke-width="1.5"/>
  <rect x="120" y="140" width="160" height="50" rx="14" fill="url(#calHead)"/>
  <rect x="120" y="170" width="160" height="20" fill="url(#calHead)"/>
  <rect x="148" y="120" width="10" height="36" rx="5" fill="#3a1f48"/>
  <rect x="242" y="120" width="10" height="36" rx="5" fill="#3a1f48"/>
  <g opacity="0.35">
    <circle cx="148" cy="220" r="3" fill="#a04bff"/>
    <circle cx="173" cy="220" r="3" fill="#a04bff"/>
    <circle cx="198" cy="220" r="3" fill="#a04bff"/>
    <circle cx="223" cy="220" r="3" fill="#a04bff"/>
    <circle cx="248" cy="220" r="3" fill="#a04bff"/>
    <circle cx="148" cy="245" r="3" fill="#a04bff"/>
    <circle cx="173" cy="245" r="3" fill="#a04bff"/>
    <circle cx="198" cy="245" r="3" fill="#a04bff"/>
    <circle cx="248" cy="245" r="3" fill="#a04bff"/>
    <circle cx="148" cy="270" r="3" fill="#a04bff"/>
    <circle cx="248" cy="270" r="3" fill="#a04bff"/>
  </g>
  <circle cx="223" cy="245" r="14" fill="url(#calHead)"/>
  <text x="223" y="251" font-family="-apple-system,Segoe UI,Roboto,sans-serif" font-size="14" font-weight="700" fill="#ffffff" text-anchor="middle">15</text>
  <g transform="translate(280 130)">
    <path d="M 0 25 A 25 25 0 1 1 25 50" stroke="url(#refreshArc)" stroke-width="6" fill="none" stroke-linecap="round"/>
    <polygon points="22,42 32,52 22,62" fill="#a04bff"/>
  </g>
  <g transform="translate(120 290) rotate(180)">
    <path d="M 0 25 A 25 25 0 1 1 25 50" stroke="url(#refreshArc)" stroke-width="6" fill="none" stroke-linecap="round"/>
    <polygon points="22,42 32,52 22,62" fill="#ff7a3a"/>
  </g>
  <g opacity="0.85">
    <path d="M 70 220 L 76 214 L 82 220 L 76 226 Z" fill="#ff7a3a"/>
    <path d="M 330 220 L 336 214 L 342 220 L 336 226 Z" fill="#ff3d8a"/>
    <path d="M 70 80 L 76 74 L 82 80 L 76 86 Z" fill="#a04bff" opacity="0.7"/>
    <path d="M 330 340 L 336 334 L 342 340 L 336 346 Z" fill="#ffffff" opacity="0.6"/>
  </g>
</svg>
