<svg xmlns="http://www.w3.org/2000/svg" viewBox="0 0 400 400" width="400" height="400">
  <defs>
    <radialGradient id="bgGlow" cx="50%" cy="50%" r="50%">
      <stop offset="0%" stop-color="#ff7a3a" stop-opacity="0.4"/>
      <stop offset="50%" stop-color="#ff3d8a" stop-opacity="0.18"/>
      <stop offset="100%" stop-color="#0b0510" stop-opacity="0"/>
    </radialGradient>
    <linearGradient id="giftBody" x1="0%" y1="0%" x2="100%" y2="100%">
      <stop offset="0%" stop-color="#ff7a3a"/>
      <stop offset="50%" stop-color="#ff3d8a"/>
      <stop offset="100%" stop-color="#a04bff"/>
    </linearGradient>
    <linearGradient id="giftLid" x1="0%" y1="0%" x2="100%" y2="100%">
      <stop offset="0%" stop-color="#ffaa6e"/>
      <stop offset="100%" stop-color="#ff5c9d"/>
    </linearGradient>
    <linearGradient id="ribbon" x1="0%" y1="0%" x2="0%" y2="100%">
      <stop offset="0%" stop-color="#ffd6a3"/>
      <stop offset="100%" stop-color="#ffaa6e"/>
    </linearGradient>
    <filter id="soft" x="-20%" y="-20%" width="140%" height="140%">
      <feGaussianBlur in="SourceGraphic" stdDeviation="3"/>
    </filter>
  </defs>
  <circle cx="200" cy="200" r="180" fill="url(#bgGlow)"/>
  <rect x="80" y="100" width="8" height="3" rx="1" fill="#ff7a3a" opacity="0.7" transform="rotate(25 84 102)"/>
  <rect x="320" y="110" width="10" height="3" rx="1" fill="#a04bff" opacity="0.8" transform="rotate(-15 325 112)"/>
  <rect x="60" y="240" width="7" height="3" rx="1" fill="#ff3d8a" opacity="0.7" transform="rotate(45 64 242)"/>
  <rect x="335" y="240" width="9" height="3" rx="1" fill="#ff7a3a" opacity="0.8" transform="rotate(-30 340 242)"/>
  <circle cx="100" cy="80" r="3" fill="#ff3d8a" opacity="0.6"/>
  <circle cx="300" cy="320" r="3" fill="#a04bff" opacity="0.6"/>
  <circle cx="120" cy="320" r="2.5" fill="#ff7a3a" opacity="0.5"/>
  <circle cx="290" cy="80" r="2.5" fill="#ffffff" opacity="0.4"/>
  <ellipse cx="200" cy="305" rx="100" ry="14" fill="#000000" opacity="0.5" filter="url(#soft)"/>
  <rect x="130" y="180" width="140" height="120" rx="8" fill="url(#giftBody)"/>
  <rect x="190" y="180" width="20" height="120" fill="url(#ribbon)" opacity="0.95"/>
  <rect x="120" y="160" width="160" height="32" rx="6" fill="url(#giftLid)"/>
  <rect x="190" y="160" width="20" height="32" fill="url(#ribbon)"/>
  <ellipse cx="180" cy="148" rx="22" ry="18" fill="url(#giftLid)" stroke="#ffffff" stroke-width="1.5" opacity="0.95"/>
  <ellipse cx="220" cy="148" rx="22" ry="18" fill="url(#giftLid)" stroke="#ffffff" stroke-width="1.5" opacity="0.95"/>
  <circle cx="200" cy="148" r="9" fill="url(#ribbon)" stroke="#ffffff" stroke-width="1.5"/>
  <rect x="135" y="186" width="3" height="100" rx="1.5" fill="#ffffff" opacity="0.35"/>
  <g opacity="0.9">
    <path d="M 70 180 L 76 174 L 82 180 L 76 186 Z" fill="#ff7a3a"/>
    <path d="M 330 180 L 336 174 L 342 180 L 336 186 Z" fill="#a04bff"/>
    <path d="M 200 60 L 207 53 L 214 60 L 207 67 Z" fill="#ff3d8a"/>
    <path d="M 70 340 L 75 335 L 80 340 L 75 345 Z" fill="#ffffff" opacity="0.7"/>
    <path d="M 340 340 L 346 334 L 352 340 L 346 346 Z" fill="#ff7a3a" opacity="0.8"/>
  </g>
</svg>
